<svg width="71" height="72" viewBox="0 0 71 72" fill="none" xmlns="http://www.w3.org/2000/svg">
<circle cx="35.4644" cy="35.9831" r="35" transform="rotate(-0.365087 35.4644 35.9831)" fill="white"/>
<g clip-path="url(#clip0)">
<path d="M49.2614 20.9681L46.0962 22.4332C45.8935 22.5284 45.7066 22.6578 45.5482 22.8183L40.4081 28.0274L22.5799 26.0048C22.2575 25.9693 21.9329 26.0809 21.7061 26.3137L20.721 27.3115C20.1989 27.8403 20.3672 28.7275 21.0478 29.0265L33.851 34.6686L30.2089 38.3575L23.8067 38.3983C23.5252 38.4001 23.257 38.5144 23.0581 38.7127L22.5267 39.254C21.9984 39.7891 22.1793 40.6856 22.8692 40.9752L28.2853 43.2552L30.6341 48.6417C30.9325 49.3279 31.8343 49.4974 32.3595 48.9623L32.894 48.4209C33.0929 48.2195 33.2006 47.9498 33.1988 47.6684L33.158 41.2662L36.8002 37.5774L42.605 50.3108C42.9127 50.9875 43.802 51.1445 44.324 50.6157L45.3092 49.618C45.5391 49.3851 45.6465 49.0622 45.607 48.7403L43.3542 30.9393L48.4973 25.7302C48.6558 25.5697 48.7829 25.3843 48.8754 25.1773L50.3001 21.9936C50.5994 21.338 49.9194 20.6636 49.2614 20.9681Z" fill="#C8A35F"/>
</g>
<defs>
<clipPath id="clip0">
<rect width="30" height="30" fill="white" transform="translate(20.369 21.079) rotate(-0.365087)"/>
</clipPath>
</defs>
</svg>
