<svg width="161" height="48" viewBox="0 0 161 48" fill="none" xmlns="http://www.w3.org/2000/svg">
<g clip-path="url(#clip0)">
<path d="M37.1031 35.4671C36.496 36.5517 35.7779 37.5732 34.9586 38.5142L34.9808 38.5362L34.2194 39.3099C30.8296 42.7629 26.3002 44.683 21.464 44.7139C16.6475 44.7446 12.1064 42.8969 8.67797 39.5119C5.24956 36.1269 3.34419 31.6097 3.3135 26.7932C3.31123 26.437 3.31876 26.0759 3.33858 25.7172C3.34072 25.668 3.34286 25.6189 3.34745 25.5673L3.34735 25.5525C3.34961 25.5206 3.35184 25.4862 3.3541 25.4542L3.35399 25.437C3.35843 25.3633 3.36531 25.2871 3.37221 25.2134C3.37673 25.152 3.38124 25.0881 3.38818 25.0217C3.3974 24.9259 3.4066 24.8276 3.41581 24.7317C3.42282 24.6752 3.42733 24.6113 3.43676 24.5498C3.44608 24.4711 3.45533 24.3802 3.46705 24.2917C3.4741 24.2425 3.48116 24.1934 3.48821 24.1442C3.49752 24.0631 3.51168 23.9721 3.52585 23.8836C3.53292 23.8369 3.5424 23.7828 3.54944 23.7312C3.55653 23.6869 3.56362 23.6426 3.57316 23.5984C3.58262 23.5418 3.59448 23.4754 3.60636 23.4115C3.61582 23.3549 3.62771 23.2934 3.6396 23.232C3.65388 23.1606 3.66573 23.0918 3.68245 23.018C3.78248 22.5261 3.90705 22.0316 4.0489 21.5493L4.05373 21.537C4.07052 21.473 4.08976 21.409 4.11148 21.3474C4.12833 21.2933 4.14517 21.2392 4.16201 21.1826C4.26316 20.8675 4.37411 20.5475 4.49251 20.2397C4.50943 20.1978 4.52633 20.1511 4.54324 20.1067C4.56259 20.0599 4.57947 20.0107 4.60125 19.959C4.62544 19.8999 4.65203 19.8334 4.67863 19.7669C4.69796 19.7177 4.72217 19.661 4.74638 19.6068L4.75605 19.5822C4.78997 19.5083 4.82141 19.432 4.85533 19.358C4.87953 19.3014 4.90375 19.2472 4.93042 19.193C5.37855 18.2076 5.92515 17.256 6.55072 16.3629L6.65298 16.2222C6.72359 16.1235 6.79419 16.0248 6.86728 15.931C6.90138 15.8866 6.93791 15.8372 6.97446 15.7903C7.0524 15.6867 7.13281 15.5854 7.21078 15.4867C7.25709 15.4299 7.30336 15.3682 7.35213 15.3114C7.39599 15.2571 7.44476 15.2003 7.49351 15.141C7.53981 15.0842 7.59102 15.025 7.63978 14.9682C7.69587 14.9039 7.75193 14.8373 7.80802 14.773L5.6773 12.6669C2.1896 16.5528 0.290873 21.5585 0.324334 26.8098C0.360128 32.427 2.57975 37.6914 6.57668 41.6377C10.5736 45.584 15.8658 47.7364 21.4831 47.7006C27.1175 47.6647 32.3965 45.4302 36.3452 41.4112C37.4727 40.2643 38.4643 38.9954 39.2981 37.6318L37.1031 35.4671Z" fill="#1D2A38"/>
<path d="M10.2082 37.9621C13.2213 40.9371 17.2157 42.5623 21.4502 42.5353C21.5828 42.5344 21.7154 42.5311 21.848 42.5278C21.9144 42.5274 21.9782 42.5245 22.0445 42.5217L22.0543 42.5216C22.1525 42.5161 22.2483 42.5105 22.3465 42.505C22.4251 42.4996 22.5012 42.4942 22.5797 42.4888C22.619 42.4861 22.6534 42.4834 22.6853 42.4807L22.7393 42.4755C22.8105 42.4701 22.8817 42.4623 22.9553 42.4545C23.0192 42.4491 23.0781 42.4438 23.1394 42.4361C23.1836 42.4309 23.2229 42.4257 23.2597 42.423L23.3407 42.4127C23.3922 42.405 23.4438 42.3998 23.4978 42.392C23.6941 42.3662 23.8855 42.338 24.0744 42.3049C24.1284 42.2947 24.1799 42.2845 24.2315 42.2768L24.2486 42.2743C24.2903 42.2666 24.3321 42.259 24.3713 42.2514L24.3909 42.2463C24.4449 42.2362 24.4989 42.226 24.5528 42.2134C24.6951 42.1855 24.8349 42.1551 24.9723 42.1223C25.0655 42.102 25.1587 42.0769 25.2519 42.0542L25.2641 42.0517C25.2886 42.0466 25.3107 42.0415 25.3352 42.034C25.4039 42.0164 25.4652 41.9988 25.529 41.9836C25.5829 41.9686 25.6344 41.956 25.6834 41.9409C25.7276 41.9283 25.7668 41.9183 25.8036 41.9057C25.8403 41.8957 25.8698 41.8881 25.8967 41.8781L25.9188 41.8706C25.958 41.8606 25.9972 41.848 26.0365 41.8355C26.1027 41.8154 26.159 41.7979 26.2154 41.7779C26.262 41.7628 26.3012 41.7503 26.3453 41.7377C26.4777 41.6927 26.61 41.6476 26.7399 41.6001C26.7767 41.5876 26.811 41.5751 26.8453 41.5626L26.8722 41.5526C26.9188 41.5351 26.9605 41.5201 26.9997 41.5051C27.0658 41.4801 27.1222 41.4577 27.181 41.4352C27.23 41.4152 27.2741 41.4002 27.3157 41.3828C27.3966 41.3503 27.4701 41.3204 27.5436 41.288L27.764 41.1932C27.8326 41.1633 27.9012 41.1334 27.9649 41.1035C28.0041 41.0861 28.0359 41.0711 28.0702 41.0562L28.102 41.0412C28.1559 41.0163 28.2098 40.989 28.2637 40.9641C28.5967 40.8023 28.9247 40.6307 29.2404 40.4469C29.2747 40.4271 29.3065 40.4072 29.3407 40.3898C29.4142 40.3476 29.4876 40.3029 29.5585 40.2607L29.9206 40.0349C30.0796 39.9307 30.2459 39.8215 30.4245 39.6976C30.4734 39.6629 30.5223 39.6282 30.5712 39.5935L30.5907 39.5786C30.6274 39.5514 30.6641 39.5266 30.7008 39.4993L30.7105 39.4919C30.7374 39.4721 30.7643 39.4523 30.7912 39.4324L30.801 39.425C30.8475 39.3928 30.8914 39.3581 30.9354 39.3234C30.9868 39.2863 31.0357 39.2467 31.0821 39.2095C31.1163 39.1823 31.1432 39.16 31.1725 39.1377L31.2067 39.1105C31.2556 39.0709 31.3069 39.0312 31.3558 38.9892C31.4071 38.9471 31.4584 38.905 31.5073 38.8654L31.5195 38.8555C31.6148 38.7763 31.7076 38.6946 31.8029 38.613C31.8322 38.5882 31.8591 38.5635 31.8884 38.5363L29.7552 36.4277C27.4467 38.4221 24.5087 39.5241 21.4385 39.5436C14.3451 39.5888 8.53631 33.8536 8.49111 26.7602C8.46907 23.3019 9.80174 20.0487 12.2399 17.599C13.3846 16.4496 14.7591 15.5148 16.2459 14.8691L13.9817 12.6336C12.5521 13.387 11.249 14.3508 10.1044 15.5027C7.1024 18.5209 5.46501 22.5228 5.49212 26.7769C5.51911 31.0137 7.19503 34.9847 10.2082 37.9621Z" fill="white"/>
<path d="M39.3178 22.614C39.282 16.9968 37.0624 11.7324 33.0655 7.78609C29.0686 3.83978 23.7739 1.68744 18.1566 1.72324C12.5222 1.75914 7.24315 3.99113 3.297 8.01262C2.1695 9.15706 1.1779 10.4284 0.341631 11.792L2.53908 13.9616C3.14623 12.877 3.86432 11.8555 4.68363 10.9145L4.66138 10.8925L5.42281 10.1188C8.8101 6.66585 13.342 4.74565 18.1781 4.71483C22.9947 4.68414 27.5358 6.53179 30.9642 9.91678C34.3926 13.3018 36.298 17.8165 36.3287 22.6355C36.331 22.9917 36.3235 23.3552 36.3036 23.7115C36.3015 23.7582 36.2993 23.8098 36.2947 23.8614C36.2925 23.8983 36.2903 23.9351 36.2881 23.972L36.2882 23.9892C36.2838 24.0629 36.2769 24.1391 36.27 24.2128C36.2654 24.2743 36.261 24.3406 36.254 24.407C36.2448 24.5004 36.2356 24.5987 36.2264 24.697C36.2194 24.7535 36.2149 24.815 36.2054 24.8789C36.1961 24.9575 36.1868 25.046 36.1751 25.137C36.1681 25.1862 36.161 25.2353 36.154 25.282C36.1447 25.3656 36.1305 25.4541 36.1163 25.5451C36.1093 25.5918 36.0998 25.6459 36.0928 25.6975C36.0857 25.7418 36.0786 25.7861 36.069 25.8303C36.0596 25.8869 36.0477 25.9533 36.0358 26.0172C36.0264 26.0738 36.0145 26.1353 36.0001 26.1967C35.9883 26.2656 35.974 26.3369 35.9573 26.4107C35.8573 26.9026 35.7327 27.3996 35.5908 27.8794C35.5716 27.9459 35.5524 28.0148 35.5283 28.0837C35.5114 28.1379 35.4946 28.192 35.4777 28.2486C35.3766 28.5661 35.2656 28.8837 35.1472 29.1915C35.1303 29.2333 35.1134 29.2776 35.0965 29.322C35.0772 29.3712 35.0578 29.4205 35.0385 29.4697C35.0143 29.5288 34.9877 29.5953 34.9611 29.6618C34.9418 29.711 34.9176 29.7677 34.8934 29.8219L34.8837 29.8465C34.8498 29.9204 34.8183 29.9968 34.7844 30.0707C34.7602 30.1273 34.736 30.1815 34.7093 30.2357C34.2612 31.2211 33.7146 32.1727 33.089 33.0658L32.9892 33.2065C32.9162 33.3076 32.8455 33.4039 32.7749 33.4977C32.7408 33.5446 32.7043 33.5915 32.6677 33.6384C32.5898 33.742 32.5094 33.8432 32.4314 33.942C32.3851 33.9988 32.3388 34.0605 32.2901 34.1173C32.2486 34.1691 32.2048 34.2234 32.1584 34.2778L32.1487 34.2877C32.0999 34.3445 32.0512 34.4037 32 34.4606C31.9439 34.5248 31.8878 34.5914 31.8317 34.6557L33.9624 36.7618C37.4526 32.8759 39.3513 27.8678 39.3178 22.614Z" fill="white"/>
<path d="M23.4012 34.5597L25.6654 36.7952C27.0951 36.0418 28.3981 35.078 29.5428 33.9261C32.5423 30.9079 34.1772 26.9036 34.1501 22.6495C34.1231 18.4151 32.4472 14.4417 29.434 11.4667C26.4184 8.48928 22.4265 6.86411 18.1896 6.89111C18.0569 6.89195 17.9243 6.89525 17.7917 6.89855C17.7254 6.89898 17.6615 6.90184 17.5952 6.90472L17.5879 6.90477C17.4897 6.9103 17.3939 6.91583 17.2957 6.92137C17.2171 6.92678 17.141 6.93218 17.0624 6.93759C17.0232 6.9403 16.9888 6.94297 16.9569 6.94563L16.9029 6.95089C16.8341 6.95624 16.7605 6.96408 16.6893 6.9719C16.6255 6.97967 16.5666 6.98496 16.5052 6.99272C16.461 6.99792 16.4218 7.00308 16.3849 7.00577L16.3236 7.01353C16.3162 7.01358 16.3089 7.01608 16.304 7.01611C16.2524 7.02135 16.2009 7.02905 16.1493 7.03675C15.953 7.06256 15.7616 7.09325 15.5727 7.12393C15.5187 7.1341 15.4672 7.1418 15.4156 7.15195L15.3985 7.15452C15.3568 7.16215 15.3175 7.16977 15.2783 7.17739L15.2513 7.18248C15.1998 7.19263 15.1482 7.20278 15.0943 7.21295C14.9471 7.24091 14.8073 7.27127 14.6699 7.30408C14.5767 7.32432 14.4835 7.34948 14.3903 7.37218L14.3781 7.37472C14.3535 7.37978 14.3315 7.38484 14.3069 7.39236C14.2383 7.40999 14.177 7.42758 14.1132 7.44272C14.0593 7.4578 14.0102 7.4704 13.9588 7.48546C13.9146 7.49803 13.8754 7.5081 13.8362 7.52063C13.7994 7.53069 13.77 7.5407 13.743 7.54824L13.7209 7.55575C13.6817 7.56583 13.6425 7.57836 13.6033 7.59089C13.5371 7.61096 13.4807 7.62852 13.4243 7.64853C13.3778 7.66356 13.3385 7.67609 13.2944 7.68865C13.162 7.73371 13.0297 7.77877 12.8998 7.82626C12.8631 7.83878 12.8312 7.85126 12.7969 7.86376L12.7675 7.87378C12.7234 7.89125 12.6842 7.90378 12.645 7.92123C12.5764 7.94623 12.5175 7.96871 12.4588 7.99364C12.4098 8.01361 12.3681 8.03107 12.324 8.04854C12.2432 8.08099 12.1697 8.11093 12.0962 8.14333L11.8757 8.23807C11.8071 8.26799 11.741 8.29788 11.6749 8.32778C11.6381 8.34521 11.6039 8.36016 11.5696 8.37512L11.5377 8.39006C11.4838 8.41496 11.43 8.44233 11.3761 8.46723C11.0431 8.62901 10.715 8.80059 10.3994 8.98436C10.3626 9.00424 10.3333 9.02163 10.299 9.04149C10.2305 9.08123 10.1595 9.12344 10.0935 9.16316L9.86593 9.30462C9.81945 9.33439 9.77053 9.36663 9.72159 9.39642C9.56014 9.50061 9.39627 9.60973 9.22021 9.73367C9.17374 9.76589 9.12974 9.79811 9.08571 9.82786L9.05636 9.8477C9.0148 9.87744 8.97813 9.90469 8.94146 9.93194L8.92678 9.94186C8.90235 9.96167 8.87789 9.97902 8.851 9.99884L8.84122 10.0063C8.79476 10.0385 8.75077 10.0732 8.70678 10.1078C8.65543 10.145 8.60901 10.1846 8.56013 10.2218C8.52591 10.249 8.49658 10.2713 8.4697 10.2936L8.43549 10.3208C8.38661 10.3604 8.33529 10.4 8.28643 10.4421C8.23022 10.4867 8.17648 10.5337 8.12273 10.5782C8.02744 10.6575 7.9346 10.7366 7.83934 10.8208C7.81003 10.8455 7.78317 10.8703 7.75386 10.8975L9.88951 13.0061C12.198 11.0116 15.136 9.90721 18.2062 9.88765C25.2996 9.84245 31.1084 15.5777 31.1536 22.6711C31.1756 26.1294 29.8429 29.3826 27.4047 31.8323C26.2625 32.9768 24.8881 33.914 23.4012 34.5597Z" fill="#1D2A38"/>
</g>
<g clip-path="url(#clip1)">
<path d="M58.2764 31.7036L57.6745 33.5617L58.915 33.5538L58.2895 31.7035L58.2764 31.7036Z" fill="white"/>
<path d="M59.0975 21.2127C58.8945 22.1476 58.5008 22.8618 57.9294 23.3551C57.3448 23.8289 56.6347 24.075 55.7859 24.0804C55.0939 24.0849 54.4529 23.9126 53.8435 23.5705C53.2537 23.2282 52.8129 22.6956 52.5342 21.9857C52.2293 21.276 52.0868 20.4281 52.0807 19.4749C52.076 18.7306 52.1953 17.9986 52.4325 17.305C52.6696 16.6049 53.0839 16.0473 53.6558 15.6323C54.2409 15.2303 54.9839 15.0166 55.8522 15.0111C56.6161 15.0062 57.2374 15.1786 57.7426 15.554C58.2476 15.9164 58.63 16.5016 58.8964 17.3161L58.9296 17.4007L60.6637 16.9914L60.6304 16.8872C60.2971 15.812 59.7171 14.9669 58.8972 14.3649C58.0773 13.7825 57.07 13.4951 55.8752 13.5027C54.8371 13.5093 53.8658 13.7441 52.9808 14.2133C52.1221 14.7019 51.4345 15.3984 50.9702 16.3089C50.5058 17.2128 50.2711 18.2851 50.2787 19.4864C50.2858 20.5963 50.5015 21.6526 50.9254 22.6032C51.3494 23.5733 51.9745 24.3332 52.7939 24.8308C53.5937 25.348 54.653 25.6024 55.9392 25.5942C57.1732 25.5864 58.2286 25.2336 59.0862 24.5687C59.9504 23.9037 60.5317 22.9141 60.8566 21.6454L60.8886 21.5408L59.1361 21.121L59.0975 21.2127Z" fill="white"/>
<path d="M74.9378 14.1452C74.0465 13.6285 73.0394 13.3738 71.9491 13.3807C70.2647 13.3915 68.8841 13.9552 67.8334 15.0523C66.7827 16.1493 66.2571 17.7001 66.2694 19.6196C66.2759 20.6446 66.5106 21.6094 66.98 22.527C67.4363 23.4447 68.12 24.1651 69.0048 24.7014C69.8896 25.2311 70.9032 25.4858 72.0066 25.4788C73.0447 25.4722 74.016 25.2244 74.8942 24.7291C75.7922 24.2533 76.4796 23.5242 76.9764 22.5808C77.4536 21.6572 77.6949 20.5849 77.6874 19.4032C77.68 18.241 77.4318 17.2045 76.9754 16.2868C76.5061 15.3822 75.8225 14.6553 74.9378 14.1452ZM74.8034 22.7775C74.0772 23.5591 73.1265 23.97 72.0036 23.9771C70.8937 23.9842 69.9575 23.5919 69.2018 22.8328C68.4656 22.054 68.0801 20.9857 68.0715 19.6342C68.0608 17.9498 68.4512 16.7198 69.2105 16.0033C69.9699 15.2868 70.9012 14.9152 71.9588 14.9085C72.7227 14.9036 73.3964 15.0887 74.0059 15.4504C74.5958 15.8123 75.0693 16.3446 75.387 17.0216C75.7047 17.6987 75.8666 18.5072 75.8725 19.4278C75.8816 20.8641 75.5232 21.996 74.8034 22.7775Z" fill="white"/>
<path d="M92.8119 13.7505L90.0683 21.727C89.8438 22.3682 89.6773 22.872 89.5558 23.2711L89.0769 21.89L86.2367 13.6879L86.0474 13.6891L86.0744 17.9394L88.7074 25.3789L90.2482 25.3691L92.8384 17.9094L92.8119 13.7505Z" fill="white"/>
<path d="M85.4206 13.6932L83.7231 13.704L83.7977 25.4102L85.4952 25.3994L85.4206 13.6932Z" fill="white"/>
<path d="M95.116 13.6314L93.4315 13.6421L93.5061 25.3483L95.1906 25.3376L95.116 13.6314Z" fill="white"/>
<path d="M102.937 13.5816L101.188 13.5927L101.262 25.2989L103.012 25.2878L102.937 13.5816Z" fill="white"/>
<path d="M109.987 15.3582C109.723 14.8767 109.407 14.4805 108.994 14.2219C108.594 13.9437 108.09 13.7576 107.515 13.6764C107.097 13.5942 106.489 13.5589 105.712 13.5638L103.564 13.5775L103.574 15.1379L105.846 15.1234C106.538 15.119 107.009 15.1487 107.27 15.2188C107.649 15.3209 107.964 15.5278 108.195 15.8528C108.438 16.1777 108.545 16.5622 108.548 17.0323C108.552 17.6591 108.366 18.1434 107.97 18.492C107.574 18.8405 106.883 19.0212 105.91 19.0274L103.606 19.0421L103.616 20.6221L105.907 20.6075C107.572 20.5969 108.765 20.2236 109.4 19.5275C110.055 18.8313 110.376 17.9804 110.37 16.975C110.359 16.3809 110.232 15.8398 109.987 15.3582Z" fill="white"/>
<path d="M120.983 13.4665L116.481 25.2019L118.335 25.19L118.849 23.8157L118.829 23.8158L120.125 20.2557L120.401 19.5227L121.358 16.9311L121.377 16.9309C121.583 16.3551 121.749 15.7664 121.889 15.1909C122.068 15.7448 122.314 16.4222 122.613 17.1777L123.814 20.2191L120.817 20.2382L120.291 21.678L124.385 21.6519L125.778 25.1296L127.769 25.1169L122.805 13.4418L120.983 13.4534L120.983 13.4665Z" fill="white"/>
<path d="M135.209 13.3759L133.577 13.3863L133.652 25.0925L135.284 25.0821L135.209 13.3759Z" fill="white"/>
<path d="M141.363 22.1313L141.33 22.0793L141.349 25.0434L143.08 25.0324L143.005 13.3262L141.307 13.337L141.363 22.1313Z" fill="white"/>
<path d="M135.854 17.1195L140.717 24.1595L140.698 21.1628L135.835 14.1358L135.854 17.1195Z" fill="white"/>
<path d="M158.158 13.2297L155.875 16.6785C155.429 17.3604 155.035 18.0028 154.693 18.5599L154.693 18.5403L153.729 20.022L153.761 24.9644L155.53 24.9531L155.498 20.0108L160.221 13.2165L158.158 13.2297Z" fill="white"/>
<path d="M154.323 17.9355L153.591 16.778L151.225 13.2738L149.077 13.2875L153.347 19.4695L154.323 17.9355Z" fill="white"/>
<path d="M50.3551 31.4603L51.5172 31.4529L51.5406 35.1221L52.187 35.118L52.1636 31.4488L53.3257 31.4413L53.3221 30.8668L50.3514 30.8857L50.3551 31.4603Z" fill="white"/>
<path d="M58.0097 30.8369L56.4959 35.0905L57.1749 35.0862L57.4953 34.1374L59.1079 34.1271L59.4404 35.0717L60.1194 35.0674L58.5516 30.8335L58.0097 30.8369ZM57.6745 33.5617L58.2764 31.7036L58.2894 31.7035L58.9149 33.5538L57.6745 33.5617Z" fill="white"/>
<path d="M65.4033 33.3035L66.2651 33.298L66.2665 33.52C66.2617 33.7877 66.1847 34.0037 66.0226 34.168C65.8604 34.3388 65.652 34.425 65.4039 34.4265C65.2538 34.4275 65.123 34.3957 65.0116 34.3311C64.9003 34.2796 64.8084 34.2083 64.7425 34.1174C64.6571 34.0265 64.6041 33.9093 64.577 33.7593C64.5434 33.6094 64.5286 33.3287 64.5259 32.9109C64.5232 32.493 64.5345 32.2122 64.5662 32.0553C64.5914 31.9115 64.6494 31.7936 64.7271 31.7017C64.7919 31.6164 64.8828 31.5375 64.9934 31.4845C65.1041 31.4251 65.2345 31.3981 65.3846 31.3906C65.587 31.3959 65.7637 31.4535 65.908 31.5636C66.0459 31.6802 66.1448 31.8298 66.1981 31.9992L66.8771 31.9949C66.8095 31.6427 66.6444 31.3434 66.3817 31.1035C66.119 30.8636 65.7853 30.7482 65.3805 30.7443C65.0475 30.7529 64.7673 30.8331 64.5463 30.9912C64.3188 31.1428 64.1567 31.3201 64.0535 31.5166C63.9888 31.6215 63.944 31.7524 63.9124 31.9223C63.8874 32.0923 63.8699 32.4188 63.873 32.915C63.8761 33.3981 63.8913 33.731 63.925 33.9006C63.9386 33.9919 63.9587 34.0701 63.9852 34.1287C64.0117 34.1873 64.0382 34.2459 64.0713 34.311C64.177 34.5062 64.3413 34.6749 64.5707 34.8236C64.7937 34.9789 65.075 35.0554 65.408 35.0598C65.8388 35.0506 66.197 34.8981 66.4824 34.6155C66.7614 34.3265 66.9093 33.973 66.9131 33.542L66.9076 32.6802L65.3994 32.6898L65.4033 33.3035Z" fill="white"/>
<path d="M71.8639 30.7487L71.2241 30.7527L71.2512 34.9965L73.9606 34.9792L73.9568 34.372L71.8871 34.3852L71.8639 30.7487Z" fill="white"/>
<path d="M78.7584 30.7047L78.1185 30.7088L78.1456 34.9525L78.7854 34.9485L78.7584 30.7047Z" fill="white"/>
<path d="M85.783 33.6764L85.7765 33.6764L83.8312 30.6724L83.2306 30.6762L83.2576 34.9199L83.8975 34.9159L83.8782 31.8996L83.8913 31.8995L85.83 34.9036L86.4372 34.8997L86.4101 30.6559L85.7638 30.6601L85.783 33.6764Z" fill="white"/>
<path d="M90.9094 34.8712L93.6188 34.854L93.615 34.2468L91.5518 34.2599L91.5439 33.0129L93.3067 33.0017L93.3031 32.4337L91.5403 32.4449L91.5325 31.2306L93.5957 31.2174L93.5918 30.6102L90.8823 30.6275L90.9094 34.8712Z" fill="white"/>
<path d="M104.172 33.0565L105.033 33.051L105.035 33.273C105.03 33.5407 104.953 33.7566 104.791 33.9209C104.629 34.0917 104.42 34.1779 104.172 34.1795C104.022 34.1804 103.891 34.1486 103.78 34.084C103.668 34.0325 103.577 33.9613 103.511 33.8703C103.425 33.7794 103.372 33.6622 103.345 33.5122C103.312 33.3623 103.297 33.0816 103.294 32.6638C103.291 32.2459 103.303 31.9651 103.334 31.8082C103.36 31.6644 103.418 31.5465 103.495 31.4546C103.56 31.3693 103.651 31.2904 103.762 31.2375C103.872 31.178 104.003 31.151 104.153 31.1436C104.362 31.1488 104.532 31.2064 104.676 31.3165C104.814 31.4332 104.913 31.5827 104.966 31.7521L105.645 31.7478C105.578 31.3956 105.413 31.0964 105.15 30.8565C104.894 30.6165 104.553 30.5012 104.149 30.4972C103.816 30.5059 103.535 30.586 103.315 30.7441C103.087 30.8957 102.925 31.073 102.822 31.2696C102.757 31.3744 102.712 31.5053 102.681 31.6753C102.656 31.8452 102.638 32.1717 102.641 32.6679C102.644 33.1511 102.659 33.484 102.693 33.6535C102.707 33.7448 102.727 33.823 102.753 33.8816C102.78 33.9402 102.806 33.9988 102.839 34.0639C102.945 34.2591 103.109 34.4278 103.339 34.5765C103.562 34.7318 103.843 34.8084 104.176 34.8128C104.607 34.8035 104.965 34.651 105.251 34.3685C105.53 34.0794 105.677 33.7259 105.681 33.295L105.676 32.4331L104.168 32.4428L104.172 33.0565Z" fill="white"/>
<path d="M112.693 31.2132C112.594 31.018 112.43 30.8427 112.207 30.694C111.977 30.5387 111.696 30.4622 111.363 30.4578C111.03 30.4664 110.75 30.5466 110.529 30.7047C110.301 30.8563 110.139 31.0336 110.036 31.2301C109.972 31.335 109.927 31.4659 109.895 31.6358C109.87 31.8058 109.853 32.1323 109.856 32.6285C109.859 33.1116 109.874 33.4445 109.908 33.6141C109.921 33.7054 109.941 33.7836 109.968 33.8422C109.994 33.9008 110.021 33.9594 110.054 34.0245C110.16 34.2197 110.324 34.3884 110.553 34.5371C110.776 34.6924 111.058 34.7689 111.391 34.7733C111.73 34.7646 112.01 34.678 112.231 34.5264C112.452 34.3748 112.614 34.204 112.711 34.0075C112.782 33.9026 112.834 33.7652 112.859 33.5953C112.884 33.4254 112.895 33.0988 112.892 32.6092C112.888 32.1195 112.873 31.7866 112.846 31.617C112.819 31.454 112.766 31.3172 112.693 31.2132ZM112.205 33.4623C112.173 33.6127 112.115 33.7306 112.037 33.8225C111.973 33.9078 111.888 33.9801 111.784 34.0396C111.674 34.1056 111.537 34.1391 111.387 34.14C111.236 34.141 111.106 34.1092 110.994 34.0446C110.883 33.9931 110.791 33.9218 110.725 33.8309C110.64 33.74 110.587 33.6228 110.56 33.4728C110.526 33.3229 110.511 33.0422 110.509 32.6244C110.506 32.2065 110.517 31.9257 110.549 31.7688C110.574 31.625 110.632 31.5071 110.71 31.4152C110.775 31.3299 110.865 31.251 110.976 31.198C111.087 31.1386 111.217 31.1116 111.367 31.1041C111.517 31.1097 111.655 31.1349 111.766 31.193C111.871 31.2511 111.956 31.3224 112.022 31.4068C112.108 31.4977 112.167 31.6148 112.194 31.7583C112.221 31.9083 112.243 32.1954 112.245 32.6133C112.248 33.0311 112.237 33.312 112.205 33.4623Z" fill="white"/>
<path d="M117.227 34.7035L119.937 34.6863L119.933 34.0791L117.87 34.0922L117.862 32.8452L119.624 32.834L119.621 32.266L117.858 32.2772L117.85 31.0628L119.913 31.0497L119.91 30.4425L117.2 30.4598L117.227 34.7035Z" fill="white"/>
<path d="M125.686 32.2274C125.484 32.2025 125.327 32.1839 125.209 32.1651C125 32.1273 124.849 32.0564 124.751 31.9591C124.652 31.8618 124.606 31.7511 124.605 31.627C124.61 31.4246 124.675 31.2675 124.818 31.1686C124.948 31.0699 125.117 31.0166 125.313 31.0153C125.698 31.0194 126.045 31.1282 126.366 31.3351L126.722 30.8039C126.328 30.5257 125.87 30.3784 125.341 30.3753C124.904 30.3846 124.565 30.4978 124.325 30.7278C124.078 30.9579 123.956 31.259 123.959 31.6246C123.961 31.9315 124.06 32.192 124.257 32.4062C124.448 32.6139 124.73 32.7492 125.096 32.8057C125.298 32.8305 125.488 32.8554 125.658 32.8804C126.03 32.9434 126.214 33.1315 126.216 33.4449C126.212 33.8302 125.933 34.0278 125.384 34.0378C124.921 34.0343 124.515 33.8997 124.174 33.6212L123.752 34.107C124.205 34.4893 124.749 34.6817 125.375 34.6777C126.348 34.6585 126.842 34.244 126.856 33.4343C126.854 33.134 126.761 32.8734 126.57 32.6461C126.38 32.4253 126.085 32.2836 125.686 32.2274Z" fill="white"/>
<path d="M138.43 32.1461L136.752 32.1568L136.741 30.3352L136.094 30.3394L136.122 34.5831L136.768 34.579L136.756 32.7248L138.434 32.7141L138.446 34.5683L139.092 34.5642L139.065 30.3204L138.419 30.3245L138.43 32.1461Z" fill="white"/>
<path d="M143.565 34.5357L146.274 34.5184L146.27 33.9112L144.2 33.9244L144.193 32.6774L145.955 32.6662L145.952 32.0982L144.189 32.1094L144.181 30.895L146.251 30.8818L146.247 30.2747L143.537 30.2919L143.565 34.5357Z" fill="white"/>
<path d="M153.377 31.411C153.362 31.0194 153.223 30.7199 152.947 30.5062C152.724 30.3183 152.436 30.2287 152.084 30.2309L150.425 30.2415L150.452 34.4853L151.099 34.4811L151.087 32.6661L151.91 32.6609L152.796 34.4703L153.56 34.4655L152.562 32.5914C153.103 32.3856 153.375 31.9921 153.377 31.411ZM151.084 32.1046L151.075 30.8185L152.081 30.8121C152.283 30.8108 152.447 30.8554 152.552 30.9396C152.689 31.0367 152.762 31.1995 152.77 31.4214C152.771 31.6042 152.714 31.7613 152.597 31.8861C152.48 32.0239 152.298 32.0969 152.056 32.0984L151.084 32.1046Z" fill="white"/>
<path d="M157.667 34.4458L160.376 34.4286L160.372 33.8214L158.303 33.8346L158.295 32.5876L160.057 32.5763L160.054 32.0083L158.291 32.0196L158.283 30.8052L160.353 30.792L160.349 30.1848L157.64 30.2021L157.667 34.4458Z" fill="white"/>
</g>
<defs>
<clipPath id="clip0">
<rect width="39.0194" height="46" fill="white" transform="translate(0.165222 1.83789) rotate(-0.365087)"/>
</clipPath>
<clipPath id="clip1">
<rect width="110" height="21.6435" fill="white" transform="translate(50.2407 13.519) rotate(-0.365087)"/>
</clipPath>
</defs>
</svg>
