<svg width="161" height="48" viewBox="0 0 161 48" fill="none" xmlns="http://www.w3.org/2000/svg">
<g clip-path="url(#clip0)">
<path d="M37.2928 35.5304C36.6857 36.6151 35.9676 37.6365 35.1483 38.5776L35.1705 38.5995L34.4091 39.3732C31.0193 42.8262 26.4899 44.7464 21.6537 44.7772C16.8372 44.8079 12.2961 42.9603 8.86767 39.5753C5.43926 36.1903 3.53389 31.6731 3.5032 26.8565C3.50093 26.5004 3.50846 26.1393 3.52828 25.7805C3.53042 25.7314 3.53256 25.6822 3.53715 25.6306L3.53705 25.6159C3.5393 25.5839 3.54154 25.5495 3.54379 25.5176L3.54368 25.5004C3.54813 25.4267 3.55501 25.3505 3.56191 25.2768C3.56643 25.2153 3.57094 25.1514 3.57788 25.0851C3.5871 24.9892 3.59629 24.8909 3.60551 24.7951C3.61252 24.7385 3.61702 24.6746 3.62646 24.6132C3.63578 24.5345 3.64503 24.4436 3.65674 24.3551C3.6638 24.3059 3.67085 24.2567 3.67791 24.2075C3.68722 24.1264 3.70138 24.0355 3.71555 23.9469C3.72262 23.9002 3.7321 23.8461 3.73914 23.7945C3.74623 23.7502 3.75331 23.706 3.76286 23.6617C3.77232 23.6052 3.78418 23.5388 3.79605 23.4748C3.80552 23.4183 3.81741 23.3568 3.8293 23.2953C3.84358 23.224 3.85542 23.1551 3.87215 23.0813C3.97218 22.5895 4.09675 22.0949 4.2386 21.6126L4.24343 21.6003C4.26022 21.5363 4.27946 21.4723 4.30117 21.4108C4.31802 21.3567 4.33487 21.3025 4.3517 21.2459C4.45286 20.9309 4.56381 20.6108 4.68221 20.3031C4.69913 20.2612 4.71603 20.2144 4.73294 20.1701C4.75229 20.1233 4.76917 20.0741 4.79095 20.0223C4.81513 19.9632 4.84173 19.8968 4.86832 19.8303C4.88766 19.781 4.91186 19.7244 4.93608 19.6702L4.94575 19.6456C4.97967 19.5717 5.01111 19.4953 5.04503 19.4214C5.06923 19.3648 5.09345 19.3106 5.12012 19.2564C5.56825 18.271 6.11485 17.3194 6.74041 16.4262L6.84268 16.2856C6.91328 16.1869 6.98389 16.0882 7.05698 15.9944C7.09108 15.9499 7.12761 15.9006 7.16416 15.8537C7.2421 15.75 7.32251 15.6488 7.40048 15.5501C7.44679 15.4933 7.49306 15.4316 7.54183 15.3748C7.58569 15.3204 7.63446 15.2636 7.6832 15.2044C7.72951 15.1476 7.78071 15.0883 7.82948 15.0315C7.88556 14.9673 7.94163 14.9006 7.99772 14.8364L5.867 12.7302C2.3793 16.6161 0.48057 21.6218 0.514032 26.8731C0.549825 32.4904 2.76945 37.7547 6.76637 41.701C10.7633 45.6474 16.0555 47.7997 21.6728 47.7639C27.3072 47.728 32.5862 45.4936 36.5349 41.4745C37.6623 40.3276 38.654 39.0588 39.4878 37.6952L37.2928 35.5304Z" fill="#C8A35F"/>
<path d="M10.3979 38.0253C13.411 41.0003 17.4054 42.6254 21.6399 42.5984C21.7725 42.5976 21.9051 42.5943 22.0377 42.591C22.104 42.5906 22.1679 42.5877 22.2342 42.5848L22.244 42.5848C22.3422 42.5792 22.438 42.5737 22.5362 42.5682C22.6148 42.5628 22.6909 42.5574 22.7694 42.552C22.8087 42.5492 22.8431 42.5466 22.875 42.5439L22.929 42.5387C23.0002 42.5333 23.0714 42.5255 23.145 42.5176C23.2089 42.5123 23.2678 42.507 23.3291 42.4993C23.3733 42.4941 23.4126 42.4889 23.4494 42.4862L23.5304 42.4759C23.5819 42.4682 23.6335 42.4629 23.6875 42.4552C23.8838 42.4294 24.0752 42.4012 24.2641 42.368C24.3181 42.3579 24.3696 42.3477 24.4212 42.34L24.4383 42.3374C24.48 42.3298 24.5218 42.3222 24.561 42.3146L24.5806 42.3095C24.6346 42.2994 24.6886 42.2892 24.7425 42.2766C24.8848 42.2486 25.0246 42.2183 25.162 42.1855C25.2552 42.1652 25.3484 42.1401 25.4415 42.1174L25.4538 42.1148C25.4783 42.1098 25.5004 42.1047 25.5249 42.0972C25.5936 42.0795 25.6549 42.062 25.7187 42.0468C25.7726 42.0317 25.8241 42.0191 25.8731 42.0041C25.9173 41.9915 25.9565 41.9814 25.9933 41.9689C26.03 41.9589 26.0595 41.9513 26.0864 41.9413L26.1085 41.9338C26.1477 41.9237 26.1869 41.9112 26.2262 41.8987C26.2924 41.8786 26.3487 41.861 26.4051 41.841C26.4517 41.826 26.4909 41.8135 26.535 41.8009C26.6674 41.7558 26.7997 41.7108 26.9296 41.6633C26.9664 41.6508 27.0007 41.6383 27.035 41.6258L27.0619 41.6158C27.1085 41.5983 27.1502 41.5833 27.1894 41.5683C27.2555 41.5433 27.3119 41.5209 27.3707 41.4984C27.4197 41.4784 27.4638 41.4634 27.5054 41.4459C27.5863 41.4135 27.6598 41.3835 27.7333 41.3511L27.9537 41.2564C28.0223 41.2265 28.0909 41.1966 28.1546 41.1667C28.1938 41.1492 28.2256 41.1343 28.2599 41.1193L28.2917 41.1044C28.3456 41.0795 28.3995 41.0521 28.4533 41.0272C28.7864 40.8655 29.1144 40.6939 29.4301 40.5101C29.4644 40.4902 29.4962 40.4704 29.5304 40.453C29.6039 40.4108 29.6773 40.3661 29.7482 40.3239L30.1103 40.098C30.2693 39.9939 30.4356 39.8847 30.6142 39.7608C30.6631 39.7261 30.712 39.6914 30.7609 39.6567L30.7804 39.6418C30.8171 39.6146 30.8538 39.5898 30.8905 39.5625L30.9002 39.5551C30.9271 39.5353 30.954 39.5154 30.9809 39.4956L30.9907 39.4882C31.0372 39.456 31.0811 39.4213 31.1251 39.3866C31.1765 39.3494 31.2254 39.3098 31.2718 39.2727C31.306 39.2455 31.3329 39.2232 31.3622 39.2009L31.3964 39.1737C31.4453 39.134 31.4966 39.0944 31.5455 39.0523C31.5968 39.0103 31.6481 38.9682 31.697 38.9286L31.7092 38.9187C31.8045 38.8395 31.8973 38.7578 31.9926 38.6761C32.0219 38.6514 32.0488 38.6267 32.0781 38.5995L29.9449 36.4908C27.6364 38.4853 24.6984 39.5872 21.6282 39.6068C14.5348 39.652 8.726 33.9168 8.68081 26.8234C8.65877 23.3651 9.99144 20.1119 12.4296 17.6622C13.5743 16.5127 14.9488 15.578 16.4356 14.9323L14.1714 12.6968C12.7418 13.4502 11.4387 14.4139 10.2941 15.5659C7.2921 18.5841 5.65471 22.586 5.68181 26.84C5.70881 31.0769 7.38472 35.0478 10.3979 38.0253Z" fill="white"/>
<path d="M39.5075 22.6773C39.4717 17.06 37.2521 11.7956 33.2552 7.84932C29.2583 3.90301 23.9636 1.75067 18.3463 1.78647C12.7119 1.82237 7.43285 4.05437 3.4867 8.07585C2.35919 9.22029 1.36759 10.4916 0.531328 11.8552L2.72877 14.0248C3.33593 12.9402 4.05402 11.9188 4.87333 10.9777L4.85108 10.9557L5.6125 10.1821C8.9998 6.72908 13.5317 4.80888 18.3678 4.77806C23.1844 4.74737 27.7255 6.59502 31.1539 9.98001C34.5823 13.365 36.4877 17.8798 36.5184 22.6988C36.5207 23.0549 36.5131 23.4185 36.4933 23.7748C36.4912 23.8214 36.489 23.873 36.4844 23.9247C36.4822 23.9615 36.48 23.9984 36.4778 24.0352L36.4779 24.0524C36.4734 24.1261 36.4666 24.2023 36.4597 24.2761C36.4551 24.3375 36.4506 24.4038 36.4437 24.4702C36.4345 24.5636 36.4253 24.6619 36.4161 24.7602C36.4091 24.8168 36.4045 24.8782 36.3951 24.9421C36.3858 25.0208 36.3765 25.1093 36.3648 25.2002C36.3578 25.2494 36.3507 25.2986 36.3437 25.3453C36.3344 25.4288 36.3202 25.5174 36.306 25.6083C36.299 25.655 36.2895 25.7091 36.2824 25.7608C36.2754 25.805 36.2683 25.8493 36.2587 25.8936C36.2493 25.9501 36.2374 26.0165 36.2255 26.0804C36.2161 26.137 36.2042 26.1985 36.1898 26.26C36.178 26.3288 36.1637 26.4002 36.147 26.4739C36.047 26.9658 35.9224 27.4628 35.7805 27.9427C35.7613 28.0091 35.7421 28.078 35.718 28.1469C35.7011 28.2011 35.6843 28.2552 35.6674 28.3118C35.5663 28.6293 35.4553 28.9469 35.3369 29.2547C35.32 29.2966 35.3031 29.3409 35.2862 29.3852C35.2669 29.4344 35.2475 29.4837 35.2282 29.5329C35.204 29.592 35.1774 29.6585 35.1508 29.725C35.1315 29.7743 35.1073 29.8309 35.0831 29.8851L35.0734 29.9097C35.0395 29.9836 35.008 30.06 34.9741 30.1339C34.9499 30.1905 34.9257 30.2447 34.899 30.2989C34.4509 31.2843 33.9043 32.2359 33.2787 33.1291L33.1789 33.2697C33.1059 33.3709 33.0352 33.4671 32.9646 33.5609C32.9305 33.6078 32.894 33.6547 32.8574 33.7016C32.7795 33.8053 32.6991 33.9065 32.6211 34.0052C32.5748 34.062 32.5285 34.1237 32.4798 34.1805C32.4383 34.2324 32.3945 34.2867 32.3481 34.341L32.3384 34.3509C32.2896 34.4077 32.2409 34.467 32.1897 34.5238C32.1336 34.588 32.0775 34.6547 32.0214 34.7189L34.1521 36.8251C37.6423 32.9391 39.541 27.931 39.5075 22.6773Z" fill="white"/>
<path d="M23.5909 34.6229L25.8551 36.8584C27.2848 36.1051 28.5878 35.1413 29.7325 33.9894C32.732 30.9711 34.3669 26.9668 34.3398 22.7128C34.3128 18.4783 32.6369 14.5049 29.6237 11.5299C26.6081 8.55252 22.6161 6.92734 18.3793 6.95434C18.2466 6.95518 18.114 6.95849 17.9814 6.96179C17.9151 6.96221 17.8512 6.96507 17.7849 6.96795L17.7776 6.968C17.6794 6.97354 17.5836 6.97906 17.4854 6.9846C17.4068 6.99001 17.3307 6.99541 17.2521 7.00082C17.2129 7.00353 17.1785 7.0062 17.1466 7.00886L17.0926 7.01412C17.0238 7.01947 16.9502 7.02731 16.879 7.03513C16.8152 7.04291 16.7563 7.04819 16.6949 7.05595C16.6507 7.06115 16.6115 7.06631 16.5746 7.069L16.5133 7.07676C16.5059 7.07681 16.4986 7.07931 16.4936 7.07934C16.4421 7.08458 16.3906 7.09228 16.339 7.09998C16.1427 7.12579 15.9513 7.15649 15.7624 7.18717C15.7084 7.19733 15.6569 7.20503 15.6053 7.21519L15.5882 7.21775C15.5465 7.22539 15.5072 7.233 15.468 7.24062L15.441 7.24571C15.3895 7.25586 15.3379 7.26601 15.284 7.27618C15.1368 7.30414 14.997 7.33451 14.8596 7.36731C14.7664 7.38756 14.6732 7.41271 14.58 7.43541L14.5678 7.43795C14.5432 7.44302 14.5212 7.44807 14.4966 7.45559C14.428 7.47323 14.3667 7.49081 14.3029 7.50595C14.249 7.52104 14.1999 7.53363 14.1485 7.5487C14.1043 7.56126 14.0651 7.57133 14.0259 7.58386C13.9891 7.59392 13.9597 7.60394 13.9327 7.61148L13.9106 7.61899C13.8714 7.62906 13.8322 7.64159 13.793 7.65412C13.7268 7.6742 13.6704 7.69175 13.614 7.71176C13.5675 7.72679 13.5282 7.73932 13.4841 7.75189C13.3517 7.79694 13.2194 7.842 13.0895 7.8895C13.0528 7.90201 13.0209 7.9145 12.9866 7.927L12.9572 7.93701C12.9131 7.95448 12.8739 7.96701 12.8347 7.98446C12.7661 8.00946 12.7072 8.03194 12.6485 8.05688C12.5995 8.07684 12.5578 8.0943 12.5137 8.11177C12.4329 8.14422 12.3594 8.17416 12.2859 8.20656L12.0654 8.30131C11.9968 8.33122 11.9307 8.36111 11.8646 8.39101C11.8278 8.40844 11.7936 8.42339 11.7593 8.43835L11.7274 8.45329C11.6735 8.4782 11.6197 8.50556 11.5658 8.53047C11.2328 8.69224 10.9047 8.86382 10.589 9.04759C10.5523 9.06748 10.523 9.08486 10.4887 9.10473C10.4202 9.14446 10.3492 9.18667 10.2832 9.22639L10.0556 9.36785C10.0091 9.39762 9.96022 9.42986 9.91129 9.45965C9.74984 9.56384 9.58597 9.67296 9.4099 9.7969C9.36344 9.82913 9.31943 9.86134 9.27541 9.89109L9.24606 9.91093C9.20449 9.94067 9.16782 9.96792 9.13115 9.99518L9.11648 10.0051C9.09204 10.0249 9.06759 10.0423 9.0407 10.0621L9.03092 10.0695C8.98446 10.1017 8.94046 10.1364 8.89647 10.1711C8.84513 10.2082 8.79871 10.2478 8.74982 10.285C8.71561 10.3122 8.68628 10.3345 8.6594 10.3568L8.62518 10.384C8.57631 10.4236 8.52498 10.4633 8.47613 10.5053C8.41992 10.5499 8.36618 10.5969 8.31242 10.6415C8.21713 10.7207 8.1243 10.7999 8.02904 10.884C7.99972 10.9087 7.97286 10.9335 7.94356 10.9607L10.0792 13.0693C12.3877 11.0748 15.3257 9.97044 18.3959 9.95088C25.4893 9.90568 31.2981 15.6409 31.3433 22.7343C31.3653 26.1926 30.0326 29.4458 27.5944 31.8955C26.4522 33.04 25.0778 33.9773 23.5909 34.6229Z" fill="#C8A35F"/>
</g>
<g clip-path="url(#clip1)">
<path d="M58.466 31.7668L57.8641 33.6249L59.1046 33.617L58.4791 31.7668L58.466 31.7668Z" fill="white"/>
<path d="M59.2871 21.2758C59.0842 22.2108 58.6904 22.925 58.119 23.4183C57.5344 23.8921 56.8243 24.1382 55.9756 24.1436C55.2835 24.148 54.6426 23.9758 54.0332 23.6337C53.4434 23.2914 53.0025 22.7588 52.7238 22.0489C52.4189 21.3392 52.2764 20.4913 52.2703 19.5381C52.2656 18.7938 52.385 18.0618 52.6221 17.3682C52.8593 16.6681 53.2736 16.1105 53.8455 15.6955C54.4305 15.2935 55.1735 15.0798 56.0418 15.0743C56.8057 15.0694 57.4271 15.2417 57.9322 15.6172C58.4372 15.9796 58.8197 16.5648 59.086 17.3792L59.1192 17.4639L60.8533 17.0546L60.82 16.9503C60.4867 15.8751 59.9068 15.0301 59.0868 14.4281C58.267 13.8457 57.2596 13.5583 56.0649 13.5659C55.0268 13.5725 54.0554 13.8072 53.1705 14.2764C52.3117 14.7651 51.6241 15.4615 51.1598 16.372C50.6955 17.276 50.4607 18.3483 50.4684 19.5496C50.4755 20.6595 50.6911 21.7158 51.115 22.6664C51.5391 23.6365 52.1642 24.3964 52.9835 24.8939C53.7833 25.4112 54.8427 25.6656 56.1289 25.6574C57.3628 25.6495 58.4183 25.2968 59.2759 24.6319C60.14 23.9669 60.7213 22.9773 61.0462 21.7086L61.0782 21.6039L59.3257 21.1842L59.2871 21.2758Z" fill="white"/>
<path d="M75.1274 14.2085C74.2361 13.6918 73.229 13.4371 72.1387 13.444C70.4542 13.4548 69.0737 14.0185 68.023 15.1156C66.9722 16.2126 66.4467 17.7634 66.459 19.6829C66.4655 20.7079 66.7002 21.6727 67.1696 22.5903C67.6259 23.508 68.3095 24.2284 69.1944 24.7647C70.0792 25.2944 71.0928 25.5491 72.1962 25.5421C73.2343 25.5355 74.2055 25.2877 75.0838 24.7924C75.9818 24.3166 76.6692 23.5875 77.166 22.6441C77.6432 21.7205 77.8845 20.6482 77.877 19.4665C77.8696 18.3043 77.6214 17.2678 77.165 16.3501C76.6957 15.4455 76.012 14.7186 75.1274 14.2085ZM74.993 22.8408C74.2667 23.6224 73.3161 24.0332 72.1931 24.0404C71.0832 24.0475 70.1471 23.6552 69.3914 22.8961C68.6552 22.1173 68.2697 21.049 68.2611 19.6975C68.2503 18.0131 68.6408 16.7831 69.4001 16.0666C70.1595 15.3501 71.0908 14.9785 72.1484 14.9718C72.9123 14.9669 73.586 15.152 74.1955 15.5137C74.7854 15.8756 75.2589 16.4079 75.5766 17.0849C75.8943 17.7619 76.0562 18.5705 76.062 19.4911C76.0712 20.9274 75.7128 22.0592 74.993 22.8408Z" fill="white"/>
<path d="M93.0016 13.8138L90.258 21.7903C90.0335 22.4315 89.867 22.9353 89.7455 23.3344L89.2666 21.9533L86.4264 13.7512L86.2371 13.7524L86.2641 18.0027L88.8971 25.4422L90.4379 25.4323L93.0281 17.9727L93.0016 13.8138Z" fill="white"/>
<path d="M85.6102 13.7563L83.9127 13.7671L83.9873 25.4733L85.6848 25.4625L85.6102 13.7563Z" fill="white"/>
<path d="M95.3055 13.6946L93.6211 13.7053L93.6957 25.4115L95.3801 25.4008L95.3055 13.6946Z" fill="white"/>
<path d="M103.127 13.6449L101.377 13.656L101.452 25.3622L103.202 25.3511L103.127 13.6449Z" fill="white"/>
<path d="M110.177 15.4216C109.913 14.9401 109.597 14.5438 109.184 14.2853C108.784 14.0071 108.28 13.821 107.705 13.7397C107.286 13.6575 106.679 13.6222 105.902 13.6272L103.754 13.6409L103.764 15.2013L106.036 15.1868C106.728 15.1824 107.198 15.212 107.46 15.2822C107.839 15.3842 108.154 15.5911 108.384 15.9161C108.628 16.241 108.735 16.6256 108.738 17.0956C108.742 17.7224 108.556 18.2068 108.16 18.5553C107.764 18.9039 107.073 19.0846 106.1 19.0908L103.795 19.1055L103.805 20.6854L106.097 20.6708C107.762 20.6602 108.954 20.287 109.59 19.5909C110.245 18.8946 110.566 18.0438 110.559 17.0383C110.549 16.4443 110.421 15.9032 110.177 15.4216Z" fill="white"/>
<path d="M121.173 13.5298L116.671 25.2652L118.525 25.2533L119.038 23.879L119.019 23.8791L120.315 20.319L120.591 19.586L121.547 16.9944L121.567 16.9942C121.772 16.4184 121.938 15.8297 122.078 15.2542C122.258 15.8081 122.504 16.4855 122.803 17.241L124.004 20.2824L121.007 20.3015L120.481 21.7413L124.574 21.7152L125.968 25.1929L127.959 25.1802L122.994 13.5051L121.173 13.5167L121.173 13.5298Z" fill="white"/>
<path d="M135.399 13.4391L133.767 13.4495L133.841 25.1557L135.474 25.1453L135.399 13.4391Z" fill="white"/>
<path d="M141.553 22.1945L141.52 22.1425L141.539 25.1066L143.269 25.0956L143.195 13.3894L141.497 13.4002L141.553 22.1945Z" fill="white"/>
<path d="M136.043 17.1827L140.907 24.2227L140.887 21.2259L136.024 14.199L136.043 17.1827Z" fill="white"/>
<path d="M158.348 13.2928L156.065 16.7416C155.619 17.4235 155.225 18.0659 154.882 18.623L154.882 18.6034L153.919 20.0852L153.95 25.0275L155.72 25.0162L155.688 20.0739L160.411 13.2796L158.348 13.2928Z" fill="white"/>
<path d="M154.513 17.9988L153.781 16.8412L151.414 13.3371L149.266 13.3508L153.537 19.5328L154.513 17.9988Z" fill="white"/>
<path d="M50.5447 31.5235L51.7068 31.5161L51.7302 35.1853L52.3765 35.1812L52.3532 31.512L53.5153 31.5046L53.5116 30.93L50.541 30.949L50.5447 31.5235Z" fill="white"/>
<path d="M58.1993 30.9001L56.6855 35.1537L57.3645 35.1493L57.685 34.2006L59.2976 34.1903L59.6301 35.1349L60.3091 35.1306L58.7412 30.8966L58.1993 30.9001ZM57.8641 33.6249L58.466 31.7668L58.4791 31.7667L59.1046 33.617L57.8641 33.6249Z" fill="white"/>
<path d="M65.5929 33.3667L66.4547 33.3612L66.4561 33.5832C66.4513 33.8509 66.3743 34.0669 66.2121 34.2311C66.05 34.4019 65.8416 34.4881 65.5935 34.4897C65.4433 34.4907 65.3126 34.4589 65.2012 34.3943C65.0898 34.3427 64.998 34.2715 64.9321 34.1805C64.8466 34.0897 64.7937 33.9725 64.7666 33.8225C64.733 33.6725 64.7181 33.3919 64.7155 32.974C64.7128 32.5562 64.7241 32.2754 64.7557 32.1185C64.7809 31.9747 64.8389 31.8568 64.9167 31.7649C64.9815 31.6796 65.0724 31.6006 65.183 31.5477C65.2936 31.4882 65.424 31.4613 65.5742 31.4538C65.7766 31.459 65.9533 31.5167 66.0976 31.6268C66.2355 31.7434 66.3343 31.8929 66.3877 32.0624L67.0667 32.058C66.9991 31.7059 66.834 31.4066 66.5713 31.1667C66.3086 30.9268 65.9749 30.8114 65.57 30.8074C65.2371 30.8161 64.9569 30.8962 64.7359 31.0543C64.5083 31.206 64.3462 31.3833 64.243 31.5798C64.1784 31.6847 64.1335 31.8156 64.102 31.9855C64.0769 32.1554 64.0594 32.482 64.0626 32.9782C64.0657 33.4613 64.0809 33.7942 64.1146 33.9637C64.1282 34.0551 64.1483 34.1333 64.1748 34.1919C64.2013 34.2505 64.2278 34.3091 64.2608 34.3741C64.3665 34.5693 64.5308 34.7381 64.7603 34.8868C64.9833 35.042 65.2645 35.1186 65.5975 35.123C66.0284 35.1137 66.3865 34.9613 66.672 34.6787C66.9509 34.3897 67.0988 34.0361 67.1026 33.6052L67.0971 32.7434L65.589 32.753L65.5929 33.3667Z" fill="white"/>
<path d="M72.0535 30.8118L71.4137 30.8159L71.4407 35.0597L74.1502 35.0424L74.1463 34.4352L72.0767 34.4484L72.0535 30.8118Z" fill="white"/>
<path d="M78.9479 30.7679L78.3081 30.772L78.3351 35.0157L78.975 35.0116L78.9479 30.7679Z" fill="white"/>
<path d="M85.9727 33.7397L85.9662 33.7397L84.0209 30.7357L83.4203 30.7395L83.4473 34.9832L84.0872 34.9792L84.0679 31.9628L84.081 31.9628L86.0197 34.9669L86.6269 34.963L86.5998 30.7192L85.9535 30.7234L85.9727 33.7397Z" fill="white"/>
<path d="M91.0991 34.9344L93.8085 34.9171L93.8047 34.31L91.7415 34.3231L91.7336 33.0761L93.4964 33.0649L93.4928 32.4969L91.73 32.5081L91.7222 31.2937L93.7854 31.2806L93.7815 30.6734L91.072 30.6907L91.0991 34.9344Z" fill="white"/>
<path d="M104.361 33.1196L105.223 33.1141L105.224 33.3361C105.22 33.6038 105.143 33.8198 104.98 33.9841C104.818 34.1549 104.61 34.2411 104.362 34.2426C104.212 34.2436 104.081 34.2118 103.969 34.1472C103.858 34.0957 103.766 34.0244 103.7 33.9335C103.615 33.8426 103.562 33.7254 103.535 33.5754C103.501 33.4255 103.486 33.1448 103.484 32.727C103.481 32.3091 103.492 32.0283 103.524 31.8714C103.549 31.7276 103.607 31.6097 103.685 31.5178C103.75 31.4325 103.841 31.3536 103.951 31.3006C104.062 31.2412 104.192 31.2142 104.342 31.2067C104.551 31.2119 104.722 31.2696 104.866 31.3797C105.004 31.4963 105.103 31.6459 105.156 31.8153L105.835 31.811C105.767 31.4588 105.602 31.1595 105.34 30.9196C105.083 30.6797 104.743 30.5643 104.338 30.5604C104.005 30.569 103.725 30.6492 103.504 30.8073C103.277 30.9589 103.115 31.1362 103.011 31.3327C102.947 31.4376 102.902 31.5685 102.87 31.7384C102.845 31.9084 102.828 32.2349 102.831 32.7311C102.834 33.2142 102.849 33.5471 102.883 33.7167C102.897 33.808 102.917 33.8862 102.943 33.9448C102.97 34.0034 102.996 34.062 103.029 34.1271C103.135 34.3223 103.299 34.491 103.529 34.6397C103.752 34.795 104.033 34.8715 104.366 34.8759C104.797 34.8667 105.155 34.7142 105.44 34.4316C105.719 34.1426 105.867 33.7891 105.871 33.3581L105.865 32.4963L104.357 32.5059L104.361 33.1196Z" fill="white"/>
<path d="M112.883 31.2765C112.784 31.0813 112.619 30.906 112.396 30.7573C112.167 30.602 111.886 30.5255 111.553 30.5211C111.22 30.5297 110.94 30.6099 110.719 30.768C110.491 30.9196 110.329 31.0969 110.226 31.2934C110.161 31.3983 110.116 31.5292 110.085 31.6991C110.06 31.869 110.042 32.1956 110.045 32.6918C110.048 33.1749 110.064 33.5078 110.097 33.6774C110.111 33.7687 110.131 33.8469 110.157 33.9055C110.184 33.9641 110.21 34.0227 110.244 34.0878C110.349 34.283 110.514 34.4517 110.743 34.6004C110.966 34.7557 111.247 34.8322 111.58 34.8366C111.92 34.8279 112.2 34.7413 112.421 34.5897C112.642 34.4381 112.804 34.2673 112.901 34.0708C112.972 33.9659 113.023 33.8285 113.048 33.6586C113.073 33.4886 113.084 33.1621 113.081 32.6725C113.078 32.1828 113.063 31.8499 113.036 31.6803C113.009 31.5173 112.955 31.3805 112.883 31.2765ZM112.395 33.5256C112.363 33.676 112.305 33.7939 112.227 33.8858C112.162 33.9711 112.078 34.0434 111.974 34.1029C111.863 34.1689 111.726 34.2024 111.576 34.2033C111.426 34.2043 111.295 34.1725 111.184 34.1079C111.072 34.0564 110.981 33.9851 110.915 33.8941C110.829 33.8033 110.776 33.6861 110.749 33.5361C110.716 33.3861 110.701 33.1055 110.698 32.6876C110.695 32.2698 110.707 31.989 110.738 31.8321C110.764 31.6883 110.822 31.5704 110.899 31.4785C110.964 31.3932 111.055 31.3143 111.166 31.2613C111.276 31.2019 111.407 31.1749 111.557 31.1674C111.707 31.173 111.844 31.1982 111.956 31.2563C112.06 31.3144 112.146 31.3857 112.212 31.4701C112.297 31.561 112.357 31.6781 112.384 31.8216C112.411 31.9716 112.432 32.2587 112.435 32.6766C112.437 33.0944 112.426 33.3752 112.395 33.5256Z" fill="white"/>
<path d="M117.417 34.7667L120.126 34.7494L120.122 34.1422L118.059 34.1554L118.051 32.9084L119.814 32.8972L119.811 32.3291L118.048 32.3404L118.04 31.126L120.103 31.1129L120.099 30.5057L117.39 30.5229L117.417 34.7667Z" fill="white"/>
<path d="M125.876 32.2905C125.673 32.2657 125.516 32.2471 125.399 32.2283C125.19 32.1904 125.039 32.1196 124.94 32.0223C124.842 31.925 124.795 31.8143 124.795 31.6902C124.8 31.4878 124.864 31.3307 125.007 31.2318C125.137 31.133 125.307 31.0797 125.502 31.0785C125.888 31.0826 126.234 31.1913 126.556 31.3982L126.911 30.8671C126.518 30.5889 126.06 30.4416 125.531 30.4385C125.094 30.4478 124.755 30.5609 124.515 30.791C124.268 31.0211 124.146 31.3222 124.148 31.6878C124.15 31.9947 124.25 32.2552 124.447 32.4694C124.638 32.6771 124.919 32.8124 125.285 32.8688C125.488 32.8937 125.677 32.9186 125.847 32.9436C126.22 33.0065 126.404 33.1947 126.406 33.5081C126.402 33.8933 126.122 34.091 125.574 34.101C125.11 34.0974 124.705 33.9629 124.363 33.6843L123.942 34.1702C124.395 34.5525 124.938 34.7449 125.565 34.7409C126.538 34.7217 127.031 34.3072 127.046 33.4975C127.044 33.1972 126.951 32.9366 126.76 32.7093C126.569 32.4885 126.274 32.3467 125.876 32.2905Z" fill="white"/>
<path d="M138.62 32.2093L136.942 32.22L136.931 30.3985L136.284 30.4026L136.311 34.6463L136.958 34.6422L136.946 32.788L138.624 32.7773L138.635 34.6315L139.282 34.6274L139.255 30.3837L138.608 30.3878L138.62 32.2093Z" fill="white"/>
<path d="M143.754 34.599L146.464 34.5817L146.46 33.9745L144.39 33.9877L144.382 32.7407L146.145 32.7295L146.141 32.1615L144.378 32.1727L144.371 30.9583L146.44 30.9451L146.437 30.338L143.727 30.3552L143.754 34.599Z" fill="white"/>
<path d="M153.567 31.4742C153.551 31.0825 153.412 30.7831 153.137 30.5694C152.914 30.3814 152.626 30.2919 152.273 30.2941L150.615 30.3047L150.642 34.5484L151.288 34.5443L151.277 32.7293L152.099 32.7241L152.986 34.5335L153.75 34.5286L152.752 32.6546C153.292 32.4488 153.564 32.0553 153.567 31.4742ZM151.273 32.1678L151.265 30.8816L152.27 30.8752C152.473 30.8739 152.636 30.9186 152.741 31.0028C152.879 31.0999 152.952 31.2626 152.96 31.4846C152.961 31.6674 152.903 31.8244 152.786 31.9492C152.67 32.0871 152.487 32.1601 152.246 32.1616L151.273 32.1678Z" fill="white"/>
<path d="M157.856 34.5091L160.566 34.4919L160.562 33.8847L158.492 33.8979L158.484 32.6509L160.247 32.6396L160.244 32.0716L158.481 32.0828L158.473 30.8685L160.543 30.8553L160.539 30.2481L157.829 30.2654L157.856 34.5091Z" fill="white"/>
</g>
<defs>
<clipPath id="clip0">
<rect width="39.0194" height="46" fill="white" transform="translate(0.354919 1.90112) rotate(-0.365087)"/>
</clipPath>
<clipPath id="clip1">
<rect width="110" height="21.6435" fill="white" transform="translate(50.4304 13.5823) rotate(-0.365087)"/>
</clipPath>
</defs>
</svg>
