<svg width="31" height="31" viewBox="0 0 31 31" fill="none" xmlns="http://www.w3.org/2000/svg">
<g opacity="0.8" clip-path="url(#clip0)">
<path d="M15.2264 0.352341C10.3607 0.383346 6.42745 4.367 6.45845 9.2327L6.53715 21.5838C6.56816 26.4495 10.5518 30.3827 15.4175 30.3517C20.2832 30.3207 24.2164 26.3371 24.1854 21.4714L24.1067 9.12024C24.0757 4.25454 20.0921 0.321337 15.2264 0.352341ZM22.3855 21.4828C22.4102 25.3559 19.2791 28.5272 15.406 28.5518C11.533 28.5765 8.36172 25.4454 8.33704 21.5724L8.25834 9.22123C8.23366 5.34817 11.3648 2.17691 15.2378 2.15223C19.1109 2.12755 22.2821 5.25865 22.3068 9.13171L22.3855 21.4828Z" fill="white"/>
<path d="M15.2646 6.32007C14.7674 6.32324 14.3672 6.72863 14.3704 7.22575L14.3968 11.368C14.3999 11.8649 14.8053 12.2653 15.3024 12.2622C15.7993 12.259 16.1998 11.8534 16.1966 11.3565L16.1702 7.21428C16.1671 6.71716 15.7617 6.3169 15.2646 6.32007Z" fill="white"/>
</g>
<defs>
<clipPath id="clip0">
<rect width="30" height="30" fill="white" transform="translate(0.25 0.447754) rotate(-0.365087)"/>
</clipPath>
</defs>
</svg>
