<svg width="180" height="23" viewBox="0 0 180 23" fill="none" xmlns="http://www.w3.org/2000/svg">
<path d="M0.541337 10.677C-0.0444492 11.2628 -0.0444493 12.2125 0.541337 12.7983L10.0873 22.3443C10.6731 22.9301 11.6228 22.9301 12.2086 22.3443C12.7944 21.7585 12.7944 20.8087 12.2086 20.2229L3.72332 11.7377L12.2086 3.25238C12.7944 2.6666 12.7944 1.71685 12.2086 1.13106C11.6228 0.545278 10.6731 0.545278 10.0873 1.13106L0.541337 10.677ZM74.0762 10.2377L1.602 10.2377L1.602 13.2377L74.0762 13.2377L74.0762 10.2377Z" fill="#C8A35F"/>
<path d="M122.599 17.6984H120.63V12.6437H115.544V17.6984H113.568V6.32336H115.544V11.0577H120.63V6.32336H122.599V17.6984ZM133.05 15.0499H128.644L127.722 17.6984H125.668L129.965 6.32336H131.738L136.043 17.6984H133.98L133.05 15.0499ZM129.199 13.4562H132.496L130.847 8.73743L129.199 13.4562ZM144.627 9.42493C144.627 8.91451 144.434 8.50826 144.049 8.20618C143.663 7.90409 143.14 7.75305 142.479 7.75305C141.911 7.75305 141.437 7.90409 141.057 8.20618C140.677 8.50305 140.486 8.88847 140.486 9.36243H138.518C138.518 8.74264 138.69 8.19055 139.033 7.70618C139.377 7.2218 139.854 6.8468 140.463 6.58118C141.072 6.31034 141.744 6.17493 142.479 6.17493C143.781 6.17493 144.791 6.45878 145.51 7.02649C146.234 7.5942 146.596 8.38847 146.596 9.4093C146.596 9.92493 146.44 10.3989 146.127 10.8312C145.815 11.2635 145.377 11.6046 144.815 11.8546C145.45 12.0734 145.934 12.4067 146.268 12.8546C146.606 13.2973 146.775 13.8494 146.775 14.5109C146.775 15.5317 146.385 16.3442 145.604 16.9484C144.822 17.5473 143.781 17.8468 142.479 17.8468C141.677 17.8468 140.95 17.7036 140.299 17.4171C139.653 17.1307 139.166 16.74 138.838 16.2452C138.515 15.7504 138.354 15.1827 138.354 14.5421H140.322C140.322 15.0317 140.525 15.4458 140.932 15.7843C141.338 16.1176 141.854 16.2843 142.479 16.2843C143.177 16.2843 143.736 16.1202 144.158 15.7921C144.585 15.464 144.799 15.0369 144.799 14.5109C144.799 13.8702 144.611 13.4067 144.236 13.1202C143.867 12.8286 143.322 12.6827 142.604 12.6827H141.268V11.1202H142.533C143.929 11.1202 144.627 10.5551 144.627 9.42493ZM156.579 15.0499H152.172L151.25 17.6984H149.196L153.493 6.32336H155.266L159.571 17.6984H157.508L156.579 15.0499ZM152.727 13.4562H156.024L154.375 8.73743L152.727 13.4562ZM173.085 20.4952H171.21V17.6984H163.718V20.4952H161.811L161.749 16.1202H162.663C163.116 15.6827 163.478 15.0473 163.749 14.214C164.02 13.3754 164.194 12.4275 164.272 11.3702L164.569 6.32336H171.741V16.1202H173.186L173.085 20.4952ZM164.897 16.1202H169.772V7.91711H166.452L166.265 11.1202C166.124 13.2609 165.668 14.9275 164.897 16.1202Z" fill="#C8A35F"/>
</svg>
