<svg width="31" height="31" viewBox="0 0 31 31" fill="none" xmlns="http://www.w3.org/2000/svg">
<path d="M29.2558 0.203067L26.0906 1.66823C25.8879 1.76335 25.701 1.89278 25.5425 2.0533L20.4025 7.26239L2.57428 5.23978C2.2519 5.2043 1.92733 5.31584 1.70049 5.54873L0.71537 6.54649C0.193286 7.07527 0.36158 7.96246 1.0422 8.26151L13.8454 13.9036L10.2032 17.5925L3.80111 17.6333C3.51963 17.6351 3.25138 17.7494 3.05247 17.9477L2.52108 18.489C1.99279 19.0241 2.17365 19.9206 2.86359 20.2102L8.27965 22.4902L10.6285 27.8767C10.9268 28.5629 11.8287 28.7324 12.3539 28.1973L12.8884 27.6559C13.0873 27.4545 13.195 27.1848 13.1932 26.9033L13.1524 20.5012L16.7946 16.8123L22.5994 29.5458C22.9071 30.2225 23.7964 30.3795 24.3184 29.8507L25.3035 28.853C25.5335 28.62 25.6409 28.2972 25.6013 27.9753L23.3486 10.1743L28.4917 4.96519C28.6502 4.80467 28.7773 4.61933 28.8698 4.41231L30.2945 1.22862C30.5937 0.572992 29.9138 -0.101385 29.2558 0.203067Z" fill="white"/>
</svg>
